<?xml version="1.0" encoding="UTF-8" standalone="no"?>
<!-- Created with Inkscape (http://www.inkscape.org/) -->

<svg
   xmlns:dc="http://purl.org/dc/elements/1.1/"
   xmlns:cc="http://creativecommons.org/ns#"
   xmlns:rdf="http://www.w3.org/1999/02/22-rdf-syntax-ns#"
   xmlns:svg="http://www.w3.org/2000/svg"
   xmlns="http://www.w3.org/2000/svg"
   version="1.1"
   width="80"
   height="80"
   viewBox="0 0 80 80"
   id="Ebene_1"
   xml:space="preserve"><metadata
   id="metadata13"><rdf:RDF><cc:Work
       rdf:about=""><dc:format>image/svg+xml</dc:format><dc:type
         rdf:resource="http://purl.org/dc/dcmitype/StillImage" /><dc:title></dc:title></cc:Work></rdf:RDF></metadata><defs
   id="defs11" />
<g
   transform="matrix(1.0006526,0,0,1.0006539,-0.05280404,3.1983503e-4)"
   id="g3"
   style="fill:#ffffff">
	<g
   id="g5"
   style="fill:#ffffff">
		<path
   d="M 77.93,11.208 C 77.047,10.32 76.119,9.3 75.144,8.31 l -17.86,17.849 c 0.556,0.556 1.144,1.109 1.729,1.704 3.449,3.454 -3.777,12.199 -11.327,19.761 -7.553,7.565 -16.303,14.792 -19.762,11.331 -0.59,-0.59 -1.156,-1.176 -1.708,-1.727 L 8.36,75.087 c 0.996,0.977 2.011,1.902 2.908,2.802 5.523,5.527 26.174,0.283 46.563,-20.109 C 78.237,37.377 83.478,16.747 77.93,11.208 z M 5.403,54.876 C -3.473,62.01 0.416,67.213 4.77,71.487 L 22.624,53.646 c -4.095,-4.08 -7.598,-6.5 -17.221,1.23 z M 71.552,4.718 c -4.279,-4.357 -9.481,-8.242 -16.621,0.63 -7.724,9.613 -5.313,13.13 -1.229,17.224 L 71.552,4.718 z"
   id="path7"
   style="fill:#ffffff" />
	</g>
</g>
</svg>