<?xml version="1.0" encoding="UTF-8" standalone="no"?>
<!-- Created with Inkscape (http://www.inkscape.org/) -->

<svg
   xmlns:dc="http://purl.org/dc/elements/1.1/"
   xmlns:cc="http://creativecommons.org/ns#"
   xmlns:rdf="http://www.w3.org/1999/02/22-rdf-syntax-ns#"
   xmlns:svg="http://www.w3.org/2000/svg"
   xmlns="http://www.w3.org/2000/svg"
   version="1.1"
   width="24"
   height="24"
   viewBox="0 0 24 24"
   id="Ebene_1"
   xml:space="preserve"><metadata
   id="metadata9"><rdf:RDF><cc:Work
       rdf:about=""><dc:format>image/svg+xml</dc:format><dc:type
         rdf:resource="http://purl.org/dc/dcmitype/StillImage" /><dc:title></dc:title></cc:Work></rdf:RDF></metadata><defs
   id="defs7" />

<path
   d="M 23.98645,14.32426 24,14.188448 V 8.824347 C 24,7.3435105 22.805916,6.1424415 21.333634,6.1424415 L 18.807272,7.9402656 C 17.07847,8.945908 16.000904,9.489152 16.000904,10.969987 v 1.073112 c 0,1.481126 1.061608,2.061302 2.479094,2.798814 l 2.988521,2.015355 c 1.362387,-0.07067 2.448684,-1.162683 2.517934,-2.533008 z m -7.999398,1.114697 0.01386,-7.6888844 c 0,-2.070611 -1.948289,-3.750073 -3.237213,-3.750073 H 3.236611 C 1.9476872,3.9999996 0,5.6791706 0,7.7500726 V 15.249927 C 0,17.320537 1.9473861,19 3.236611,19 l 9.644198,-0.01861 c 1.193783,-0.09889 3.045725,-1.62479 3.106243,-3.542431 z"
   id="path3"
   style="fill:#ffffff;fill-rule:evenodd" /></svg>